<svg width="100%" height="100%" viewBox="0 0 800 800" version="1.1" xmlns="http://www.w3.org/2000/svg" xmlns:xlink="http://www.w3.org/1999/xlink" xml:space="preserve" xmlns:serif="http://www.serif.com/" style="fill-rule:evenodd;clip-rule:evenodd;stroke-linejoin:round;stroke-miterlimit:2;">
    <g id="Icons">
        <g id="Color-">
            <g id="Amazon">
                <path d="M423.378,432.659c-12.371,24.706 -33.585,40.612 -56.538,45.976c-3.481,0 -8.796,1.741 -14.111,1.741c-38.806,0 -61.76,-30.023 -61.76,-74.164c0,-56.565 33.538,-83.012 75.871,-95.436c22.953,-5.27 49.482,-7.058 75.964,-7.058l-0,21.223c-0,40.612 1.74,72.377 -19.426,107.718Zm19.426,-210.118c-22.954,1.741 -49.483,3.483 -75.964,6.965c-40.593,5.365 -81.186,12.423 -114.676,28.329c-65.334,26.494 -109.501,83.012 -109.501,165.977c-0,104.282 67.074,157.223 151.881,157.223c28.222,0 51.176,-3.576 72.296,-8.8c33.631,-10.635 61.806,-30.07 95.343,-65.411c19.426,26.494 24.788,38.917 58.278,67.152c8.843,3.483 17.686,3.483 24.694,-1.741c21.214,-17.694 58.326,-49.506 77.705,-67.153c8.843,-7.058 7.103,-17.694 1.74,-26.447c-19.379,-24.753 -38.852,-45.976 -38.852,-93.647l0,-158.964c0,-67.106 5.362,-128.942 -44.073,-174.824c-40.593,-37.035 -104.186,-51.2 -153.622,-51.2l-21.213,-0c-89.982,5.224 -185.278,44.094 -206.538,155.388c-3.528,14.165 7.102,19.436 14.158,21.177l98.871,12.376c10.583,-1.788 15.898,-10.635 17.638,-19.388c8.796,-38.871 40.593,-58.306 75.871,-61.882l7.102,-0c21.214,-0 44.167,8.847 56.491,26.541c14.111,21.176 12.371,49.459 12.371,74.212l-0,14.117Z" style="fill:#fff;"/>
                <path id="Fill-237" d="M799.906,599.106l-0,-0.047c-0.376,-8.33 -2.117,-14.683 -5.597,-19.953l-0.377,-0.518l-0.423,-0.517c-3.528,-3.859 -6.914,-5.318 -10.583,-6.918c-10.96,-4.235 -26.905,-6.494 -46.096,-6.541c-13.782,-0 -28.975,1.317 -44.262,4.659l-0.047,-1.036l-15.381,5.13l-0.282,0.141l-8.702,2.823l0,0.377c-10.207,4.235 -19.473,9.506 -28.081,15.765c-5.362,4 -9.783,9.317 -10.018,17.458c-0.142,4.424 2.116,9.506 5.832,12.518c3.716,3.012 8.043,4.047 11.853,4.047c0.894,0 1.741,-0.047 2.493,-0.188l0.753,-0.047l0.564,-0.094c7.526,-1.6 18.486,-2.683 31.327,-4.471c11.006,-1.223 22.671,-2.118 32.784,-2.118c7.15,-0.047 13.594,0.471 18.015,1.412c2.211,0.471 3.857,1.036 4.751,1.506c0.329,0.094 0.564,0.235 0.706,0.33c0.188,0.611 0.47,2.211 0.423,4.423c0.094,8.471 -3.481,24.188 -8.42,39.529c-4.797,15.342 -10.63,30.73 -14.487,40.942c-0.941,2.353 -1.552,4.941 -1.552,7.764c-0.094,4.094 1.599,9.083 5.174,12.377c3.481,3.294 7.996,4.612 11.759,4.612l0.188,-0c5.645,-0.047 10.442,-2.306 14.582,-5.553c39.04,-35.106 52.634,-91.2 53.198,-122.777l-0.094,-5.035Zm-115.757,48.659c-3.998,-0.047 -8.091,0.894 -11.901,2.682c-4.28,1.694 -8.654,3.671 -12.793,5.412l-6.068,2.541l-7.902,3.153l-0,0.094c-85.842,34.824 -176.012,55.247 -259.455,57.035c-3.057,0.094 -6.161,0.094 -9.125,0.094c-131.232,0.095 -238.287,-60.8 -346.283,-120.8c-3.763,-1.976 -7.667,-3.011 -11.43,-3.011c-4.845,-0 -9.831,1.835 -13.453,5.223c-3.622,3.436 -5.785,8.377 -5.738,13.412c-0.047,6.541 3.48,12.565 8.419,16.471c101.364,88.047 212.465,169.835 361.9,169.929c2.917,0 5.88,-0.094 8.843,-0.141c95.061,-2.118 202.54,-34.259 285.983,-86.683l0.517,-0.329c10.913,-6.541 21.825,-13.976 32.126,-22.212c6.397,-4.753 10.819,-12.188 10.819,-19.906c-0.282,-13.694 -11.9,-22.964 -24.459,-22.964Z" style="fill:#ff9a00;"/>
            </g>
        </g>
    </g>
</svg>
