<svg width="100%" height="100%" viewBox="0 0 9167 9167" version="1.1" xmlns="http://www.w3.org/2000/svg" xmlns:xlink="http://www.w3.org/1999/xlink" xml:space="preserve" style="fill-rule:evenodd;clip-rule:evenodd;stroke-linejoin:round;stroke-miterlimit:2;">
    <g>
        <rect x="-155.877" y="-162.78" width="9323.66" height="9356.47" style="fill:#262628;"/>
        <path d="M8357.64,7271.37c275.628,505.025 1154.34,1736.88 1047.92,1850.32c-869.146,926.601 -3454.69,49.327 -4825.41,49.327c-1370.61,0 -4136.31,1089.92 -5005.46,163.319c-106.416,-113.335 1009.77,-1674.63 1227.97,-2062.86c51.478,-195.951 112.706,-394.209 245.962,-545.287c170.998,-193.645 431.008,-277.519 678.123,-353.321c596.031,-182.741 1191.96,-365.377 1787.99,-548.223c55.776,-147.304 111.343,-374.813 129.166,-715.028c-132.311,-150.135 -243.13,-314.843 -300.374,-458.163c-92.367,-230.759 -112.077,-450.404 -113.021,-589.112c-23.38,42.776 -79.051,65.108 -128.013,55.882c-54.833,-10.38 -99.391,-52.632 -125.602,-101.698c-26.315,-49.066 -37.009,-104.948 -45.816,-159.885c-31.033,-191.548 -44.558,-385.822 -40.469,-579.781c1.677,-82.721 19.71,-183.79 97.923,-210.42c36.59,-12.371 77.269,-3.46 111.029,15.937c-17.509,-388.653 -16.67,-621.614 2.516,-1010.26c9.855,-198.888 26.525,-405.008 124.343,-578.419c90.375,-160.304 242.187,-281.292 410.67,-355.312c90.164,-39.525 185.351,-71.712 279.406,-97.713c452.082,-125.078 931.318,-123.086 1379.94,14.363c75.906,23.17 152.546,50.744 226.88,83.35c168.482,74.02 320.295,195.008 410.564,355.312c97.819,173.411 114.593,379.531 124.448,578.419c19.187,388.651 20.026,621.612 2.517,1010.26c33.759,-19.397 74.438,-28.308 110.923,-15.937c78.318,26.63 96.351,127.699 98.028,210.42c4.089,193.959 -9.435,388.233 -40.469,579.781c-8.806,54.937 -19.501,110.819 -45.816,159.885c-26.316,49.066 -70.874,91.318 -125.602,101.698c-48.962,9.226 -104.738,-13.106 -128.118,-55.882c-0.943,138.708 -20.549,358.353 -112.915,589.112c-57.245,143.32 -168.064,308.028 -300.48,458.163c17.928,340.215 73.39,567.724 129.166,715.028c596.032,182.846 1192.06,365.482 1788.09,548.223c247.01,75.802 507.125,159.676 678.124,353.321c133.255,151.078 148.823,367.391 245.856,545.182Z" style="fill:#1a1a1c;fill-rule:nonzero;"/>
    </g>
</svg>
