<svg width="100%" height="100%" viewBox="0 0 800 800" version="1.1" xmlns="http://www.w3.org/2000/svg" xmlns:xlink="http://www.w3.org/1999/xlink" xml:space="preserve" xmlns:serif="http://www.serif.com/" style="fill-rule:evenodd;clip-rule:evenodd;stroke-linejoin:round;stroke-miterlimit:2;">
    <rect x="0" y="0" width="800" height="800" style="fill:none;"/>
    <path d="M400,66.667c-0.419,-0.002 -0.838,-0.003 -1.257,-0.003c-182.862,0 -333.334,150.472 -333.334,333.334c0,143.618 92.819,271.827 229.258,316.669c16.666,2.666 22,-7.667 22,-16.667l-0,-56.333c-92.334,20 -112,-43.667 -112,-43.667c-6.224,-20.697 -19.725,-38.462 -38,-50c-30.334,-20.667 2.333,-20 2.333,-20c21.183,2.74 39.988,15.031 51,33.333c19.146,34.043 62.776,46.488 97,27.667c1.518,-16.894 8.959,-32.72 21,-44.667c-71.333,-7.333 -150.667,-36 -150.667,-163c-0.964,-33.273 10.988,-65.661 33.334,-90.333c-10.146,-28.676 -8.953,-60.174 3.333,-88c12.286,-27.826 28,-9 91.667,33.333c54.582,-14.673 112.084,-14.673 166.666,0c63.667,-43 91.667,-33.333 91.667,-33.333c12.286,27.826 13.479,59.324 3.333,88c22.346,24.672 34.298,57.06 33.334,90.333c-0,127.334 -78,155.334 -152.334,163.667c16.188,16.271 24.579,38.769 23,61.667l0,91.333c0,9 5.334,19.667 22.334,16.667c136.435,-44.844 229.25,-173.051 229.25,-316.667c0,-182.704 -150.213,-333.105 -332.917,-333.333Z" style="fill:#fff;fill-rule:nonzero;stroke:#fff;stroke-width:1px;"/>
</svg>
