<svg width="100%" height="100%" viewBox="0 0 5000 2916" version="1.1" xmlns="http://www.w3.org/2000/svg" xmlns:xlink="http://www.w3.org/1999/xlink" xml:space="preserve" style="fill-rule:evenodd;clip-rule:evenodd;stroke-linejoin:round;stroke-miterlimit:2;">
    <g>
        <path d="M0,1806.81c49.74,23.26 99.481,46.9 149.202,71.5c2050.98,1015.09 2748.73,835.66 2984.83,349.54c122.68,-252.57 121.88,-589.06 121.18,-883.94c-0.65,-271.32 -1.22,-507.849 94.7,-617.483c157.42,-179.946 568.27,-9.996 1650.09,928.483l0,29.29c-1079.32,-938.784 -1484.15,-1113.8 -1633.57,-943.01c-90.35,103.279 -89.79,335.89 -89.16,602.72c0.71,297.27 1.52,636.49 -123.42,893.73c-241.3,496.81 -947.4,683.66 -3014.34,-339.32c-46.49,-23.01 -93.001,-45.03 -139.508,-66.86l-0,-24.65Zm561.098,-1806.81l280.982,0c-88.129,5.437 -181.731,5.533 -280.982,0Zm849.332,0l63.99,0c-344.19,148.098 -810.402,186.681 -1474.42,23.804l-0,-23.304c625.782,153.843 1074.45,127.686 1410.43,-0.5Zm318.46,0l42.96,0c-363.78,251.596 -900.222,359.104 -1771.85,127.384l-0,-23.378c842.042,224.38 1368.74,130.315 1728.89,-104.006Zm228.38,0l34.55,0c-362.87,345.672 -935.57,530.437 -1991.82,228.963l-0,-23.446c1030.02,294.704 1596.56,124.388 1957.27,-205.517Zm182.39,0l29.99,0c-351.32,432.403 -937.23,703.554 -2169.65,328.803l0,-23.506c1208.03,368.26 1790,112.509 2139.66,-305.297Zm152.48,0l27.43,0c-333.52,512.15 -913.43,879.594 -2319.57,427.008l0,-23.584c1382.71,446.155 1960.21,95.063 2292.14,-403.424Zm130.93,0l25.59,0c-312.25,584.498 -868.21,1059.09 -2448.66,523.659l0,-23.671c1557.75,529.052 2112.58,71.747 2423.07,-499.988Zm114.22,0l24.44,0c-289.68,648.778 -804.04,1242.6 -2561.73,618.845l0,-23.759c1735.54,617.414 2249.7,41.738 2537.29,-595.086Zm100.89,0l23.73,0c-267.8,703.903 -722.18,1430.67 -2661.91,712.66l0,-23.856c1918,711.696 2372.86,3.867 2638.18,-688.804Zm90.14,0l23.36,0c-46.83,140.861 -98.21,286.306 -165.32,424.479c-288.15,593.261 -861.62,1043.4 -2586.36,380.357l0,-23.792c1714.57,661.306 2282.42,218.64 2566.54,-366.353c65.22,-134.27 115.74,-276.505 161.78,-414.691Zm81.67,0l23.06,0c-3.53,11.702 -7.06,23.457 -10.61,35.271c-54.39,180.936 -112.42,374.019 -199.01,552.303c-283.8,584.296 -870.9,1005.88 -2623.43,308.193l0,-23.86c1742.58,695.963 2323.91,281.763 2603.61,-294.116c85.81,-176.662 143.58,-368.867 197.71,-548.984l8.67,-28.807Zm75.29,0l23,0c-14.52,50.163 -28.7,102.113 -43.17,155.132c-53.03,194.209 -109.95,402.693 -201.96,592.128c-279.73,575.93 -880.19,971.03 -2663.15,238.172l0,-23.972c1773.16,731.09 2367.77,343.38 2643.33,-223.982c91.05,-187.452 147.71,-394.978 200.48,-588.286c13.9,-50.91 27.54,-100.834 41.47,-149.192Zm71.56,0l23.1,0c-25.8,85.068 -48.65,178.11 -72.39,274.798c-50.74,206.702 -105.54,429.904 -202.41,629.336c-275.89,568.036 -889.47,938.366 -2705.14,169.846l0,-24.09c1806.01,766.7 2413.66,403.79 2685.33,-155.538c95.75,-197.145 150.28,-419.227 200.76,-624.878c23.22,-94.544 45.59,-185.634 70.75,-269.474Zm71.61,0l23.51,0c-40.94,113.407 -70.66,249.715 -102.18,394.359c-47.63,218.451 -99.35,455.734 -200.63,664.281c-272.25,560.52 -898.84,907.4 -2749.15,102.8l0,-24.21c1840.8,802.71 2461.38,463.29 2729.33,-88.38c99.95,-205.802 151.43,-441.924 198.81,-659.299c30.98,-142.122 60.24,-276.295 100.31,-389.551Zm78.99,0l24.8,0c-67.22,128.824 -102.32,313.081 -140.53,513.708c-43.76,229.729 -91.56,480.736 -196.79,697.382c-268.75,553.33 -908.27,877.8 -2794.92,36.8l0,-24.33c1877.27,839.031 2510.74,522.07 2775.11,-22.25c103.84,-213.811 151.38,-463.379 194.88,-691.793c37.51,-196.972 72.07,-378.342 137.45,-509.517Zm108.12,0l32.61,0c-10.87,9.195 -21.11,19.321 -30.74,30.337c-105.51,120.595 -142.58,348.112 -184.04,602.553c-39.18,240.486 -82.25,504.8 -191.08,728.87c-265.37,546.37 -917.84,849.27 -2842.31,-28.41l0,-24.43c1915.23,875.62 2561.58,580.26 2822.5,43.06c107.35,-221.03 150.15,-483.691 189.09,-722.67c42,-257.782 79.55,-488.279 189.31,-613.739c4.74,-5.414 9.66,-10.557 14.66,-15.571Zm470.49,0l50.58,0c280.52,126.924 681.51,409.494 1263.37,911.62l0,29.214c-621.52,-537.838 -1034.62,-825.258 -1313.95,-940.834Zm237.8,0l40.36,0c260.95,156.517 597.73,410.029 1035.79,787.734l0,29.213c-462.67,-400.033 -811.241,-661.571 -1076.15,-816.947Zm192.78,0l37.689,0c230.181,156.009 508.251,373.164 845.681,663.846l0,29.221c-356.92,-308.342 -646.79,-534.436 -883.37,-693.067Zm174.86,0l36.53,0c193.51,141.295 415.87,319.51 671.98,539.956l0,29.229c-272.84,-235.497 -506.98,-423.025 -708.51,-569.185Zm164.61,0l35.62,0c153.02,117.733 321.79,255.7 508.28,416.068l0,29.234c-201.28,-173.586 -381.8,-321.181 -543.9,-445.302Zm157.46,0l35.13,0c109.68,87.84 226.57,184.996 351.31,292.171l0,29.249c-138.22,-119.094 -266.79,-225.967 -386.44,-321.42Zm152.22,0l34.61,0c64.28,53.176 130.74,109.18 199.61,168.292l0,29.244c-81.3,-69.99 -159.35,-135.809 -234.22,-197.536Zm148,0l34.17,0c17.22,14.642 34.53,29.397 52.05,44.422l0,29.234c-29.13,-25.06 -57.92,-49.662 -86.22,-73.656Zm86.22,1035.5l0,29.23c-1138.32,-985.896 -1569.26,-1130.44 -1756.16,-916.795c-103.22,117.992 -134.23,346.919 -169.03,603.959c-33.95,250.796 -71.5,528.086 -183.64,758.956c-262.08,539.61 -927.66,821.49 -2891.17,-93.01l0,-24.48c1954.51,912.43 2613.79,638.01 2871.36,107.71c110.53,-227.58 147.83,-503.022 181.56,-752.144c35.28,-260.585 66.71,-492.662 174.39,-615.753c194.72,-222.579 631.77,-83.114 1772.69,902.327Zm0,123.89l0,29.24c-1125.93,-976 -1551.47,-1127.26 -1730.42,-922.716c-100.82,115.252 -125.65,345.366 -153.63,604.794c-28.12,260.702 -59.4,550.712 -174.57,787.822c-258.88,533 -937.7,794.39 -2941.38,-157.1l0,-24.58c1994.83,949.31 2667.28,695.44 2921.56,171.9c113.42,-233.52 144.48,-521.5 172.41,-780.403c28.38,-263.157 53.57,-496.582 159.08,-617.196c186.81,-213.525 618.44,-67.337 1746.95,908.239Zm0,123.88l0,29.25c-1113.86,-966.345 -1534.09,-1123.99 -1705.31,-928.274c-98.32,112.386 -116.88,343.468 -137.89,605.078c-21.71,270.266 -46.01,572.756 -163.96,815.616c-255.75,526.55 -947.86,767.93 -2992.84,-220.71l0,-24.67c2036.26,986.34 2721.95,752.52 2973.02,235.6c116.03,-238.91 140.16,-539.24 161.71,-807.582c21.32,-265.518 40.16,-500.054 143.43,-618.092c179.12,-204.745 605.42,-52.172 1721.84,913.784Zm0,123.88l0,29.27c-1102.07,-956.941 -1517.08,-1120.66 -1680.82,-933.503c-95.75,109.455 -107.99,341.264 -121.89,604.813c-14.75,279.55 -31.37,594.42 -151.84,842.46c-252.67,520.21 -958.15,742.03 -3045.45,-283.9l0,-24.76c2078.72,1023.5 2777.72,809.3 3025.63,298.88c118.46,-243.9 134.95,-556.38 149.59,-833.81c14.12,-267.686 26.55,-503.125 127.43,-618.443c171.68,-196.233 592.74,-37.583 1697.35,918.993Zm0,123.89l0,29.27c-1090.56,-947.754 -1500.44,-1117.26 -1656.91,-938.406c-93.1,106.418 -98.95,338.729 -105.64,604.006c-7.27,288.56 -15.51,615.66 -138.31,868.49c-247.68,509.94 -957.09,713.63 -3049.09,-321.76c-16.692,-8.26 -33.365,-15.91 -50.052,-24.02l0,-24.66c19.917,9.65 39.819,18.81 59.744,28.67c2075.98,1027.46 2777.09,831.27 3019.59,331.991c120.66,-248.451 128.84,-572.961 136.06,-859.231c6.79,-269.624 12.74,-505.735 111.17,-618.249c164.45,-187.972 580.36,-23.528 1673.44,923.899Z" style="fill:#b3b3b3;fill-rule:nonzero;"/>
    </g>
</svg>
